<?xml version="1.0" encoding="UTF-8" standalone="no"?>
<!-- Created with Inkscape (http://www.inkscape.org/) -->

<svg
   xmlns:osb="http://www.openswatchbook.org/uri/2009/osb"
   xmlns:dc="http://purl.org/dc/elements/1.1/"
   xmlns:cc="http://creativecommons.org/ns#"
   xmlns:rdf="http://www.w3.org/1999/02/22-rdf-syntax-ns#"
   xmlns:svg="http://www.w3.org/2000/svg"
   xmlns="http://www.w3.org/2000/svg"
   xmlns:xlink="http://www.w3.org/1999/xlink"
   xmlns:sodipodi="http://sodipodi.sourceforge.net/DTD/sodipodi-0.dtd"
   xmlns:inkscape="http://www.inkscape.org/namespaces/inkscape"
   width="2634.9458"
   height="3034.3682"
   id="svg2"
   sodipodi:version="0.32"
   inkscape:version="0.92.5 (2060ec1f9f, 2020-04-08)"
   sodipodi:modified="true"
   version="1.1"
   sodipodi:docname="asymptor1.svg"
   inkscape:export-filename="/home/hugo/Projects/asymptor/man/figures/asymptor2.png"
   inkscape:export-xdpi="30"
   inkscape:export-ydpi="30">
  <defs
     id="defs4">
    <linearGradient
       id="linearGradient1151"
       osb:paint="solid">
      <stop
         style="stop-color:#ffffff;stop-opacity:1;"
         offset="0"
         id="stop1149" />
    </linearGradient>
    <linearGradient
       inkscape:collect="always"
       xlink:href="#linearGradient1151"
       id="linearGradient1153"
       x1="-940.41223"
       y1="340.50522"
       x2="1684.5066"
       y2="340.50522"
       gradientUnits="userSpaceOnUse" />
  </defs>
  <sodipodi:namedview
     id="base"
     pagecolor="#000000"
     bordercolor="#666666"
     borderopacity="1.0"
     gridtolerance="10000"
     guidetolerance="10"
     objecttolerance="10"
     inkscape:pageopacity="0"
     inkscape:pageshadow="2"
     inkscape:zoom="0.33007813"
     inkscape:cx="593.54561"
     inkscape:cy="1370.7071"
     inkscape:document-units="px"
     inkscape:current-layer="layer1"
     inkscape:window-width="1920"
     inkscape:window-height="1057"
     inkscape:window-x="0"
     inkscape:window-y="23"
     showgrid="false"
     inkscape:window-maximized="1"
     fit-margin-top="0"
     fit-margin-left="0"
     fit-margin-right="0"
     fit-margin-bottom="0" />
  <metadata
     id="metadata7">
    <rdf:RDF>
      <cc:Work
         rdf:about="">
        <dc:format>image/svg+xml</dc:format>
        <dc:type
           rdf:resource="http://purl.org/dc/dcmitype/StillImage" />
        <dc:title></dc:title>
      </cc:Work>
    </rdf:RDF>
  </metadata>
  <g
     inkscape:label="Layer 1"
     inkscape:groupmode="layer"
     id="layer1"
     transform="translate(945.42568,1176.6788)">
    <path
       sodipodi:type="star"
       style="fill:#0c0c0c;fill-opacity:1;stroke:url(#linearGradient1153);stroke-width:20;stroke-miterlimit:4;stroke-dasharray:none;stroke-opacity:1"
       id="path1143"
       sodipodi:sides="6"
       sodipodi:cx="372.04721"
       sodipodi:cy="340.50522"
       sodipodi:r1="1505.6537"
       sodipodi:r2="1303.9344"
       sodipodi:arg1="0.52828237"
       sodipodi:arg2="1.0518811"
       inkscape:flatsided="true"
       inkscape:rounded="0"
       inkscape:randomized="0"
       d="M 1672.4413,1099.4309 364.99537,1846.1424 -935.39875,1087.2167 -928.34691,-418.42045 379.09906,-1165.132 1679.4932,-406.20629 Z" />
    <g
       id="g988"
       style="fill:#933030;fill-opacity:1;stroke:none;stroke-opacity:1">
      <path
         sodipodi:nodetypes="ccscccsccssscssscsscccccscscscccscccc"
         inkscape:connector-curvature="0"
         id="path2558"
         d="m 302.07468,1018.9879 c -15.81897,-5.1904 -28.34737,-16.8655 -31.92586,-29.75162 -1.42594,-5.13478 -2.10543,-110.17978 -2.11301,-326.65896 l -0.0112,-319.09031 h -8.01483 -8.01483 v 120.45053 c 0,118.07986 -0.0815,120.59391 -4.14303,127.73631 -5.26073,9.25131 -11.16854,13.58617 -22.73067,16.67855 -17.09376,4.5719 -35.7878,-4.15819 -42.50097,-19.84788 -4.3193,-10.09485 -4.038,-279.33842 0.30928,-296.02878 9.79916,-37.6215 41.53277,-68.44297 78.54331,-76.28567 19.49608,-4.1313 199.75046,-4.18226 219.18913,-0.062 19.80013,4.19692 36.80657,13.69012 51.85463,28.94588 15.47834,15.69199 22.70364,28.42132 28.09297,49.4934 3.75647,14.68761 3.96364,22.55346 3.96364,150.49169 0,116.94951 -0.41197,135.98001 -3.08199,142.37026 -4.15156,9.9361 -8.42366,14.40454 -17.95694,18.78224 -15.82006,7.2646 -35.92704,2.59108 -45.28163,-10.52495 l -4.81104,-6.74554 -0.54573,-122.72704 -0.54575,-122.72704 h -7.97001 -7.97002 v 320.65745 c 0,351.50048 0.79525,328.16116 -11.62761,341.25028 -9.81312,10.3393 -19.82011,14.2505 -36.46136,14.2505 -16.64124,0 -26.64824,-3.9112 -36.46135,-14.2505 -12.18104,-12.83433 -11.62761,-2.8865 -11.62761,-209.00564 V 607.97631 h -8.01483 -8.01483 V 796.3891 c 0,153.54409 -0.50003,189.60605 -2.70192,194.86049 -4.03669,9.63291 -12.81825,19.13041 -22.03661,23.83331 -8.88472,4.5326 -29.05582,6.6393 -37.38936,3.905 z"
         style="fill:#933030;fill-opacity:1;stroke:none;stroke-opacity:1" />
      <path
         inkscape:connector-curvature="0"
         id="path5075"
         style="opacity:1;fill:#933030;fill-opacity:1;fill-rule:evenodd;stroke:none;stroke-width:7.28464603;stroke-linecap:square;stroke-linejoin:miter;stroke-miterlimit:4;stroke-dasharray:none;stroke-dashoffset:0;stroke-opacity:1"
         d="m 463.3593,117.73496 a 91.47764,89.005266 0 1 1 -182.95528,0 91.47764,89.005266 0 1 1 182.95528,0 z" />
    </g>
    <g
       id="g969"
       transform="matrix(1.1724377,0,0,1.1724377,-64.273363,-22.536786)">
      <path
         sodipodi:nodetypes="cccccc"
         inkscape:connector-curvature="0"
         id="path814"
         d="m 313.34871,138.18466 58.69836,-12.87573 58.69864,12.87573 -20,35.59765 h -77.397 z"
         style="fill:#f3f3f3;fill-opacity:1;stroke:none;stroke-width:1px;stroke-linecap:butt;stroke-linejoin:miter;stroke-opacity:1" />
      <path
         sodipodi:nodetypes="cc"
         inkscape:connector-curvature="0"
         id="path818"
         d="m 427.87517,139.56951 c 5.49,-2.88277 8.8737,-7.12066 20.49651,-4.2366"
         style="fill:none;stroke:#ffffff;stroke-width:3.5;stroke-linecap:butt;stroke-linejoin:miter;stroke-miterlimit:4;stroke-dasharray:none;stroke-opacity:1" />
      <path
         sodipodi:nodetypes="cc"
         inkscape:connector-curvature="0"
         id="path820"
         d="m 408.40317,171.67614 c 5.36066,0.70669 11.65989,3.0444 14.01594,5.85875"
         style="fill:none;stroke:#ffffff;stroke-width:3.5;stroke-linecap:butt;stroke-linejoin:miter;stroke-miterlimit:4;stroke-dasharray:none;stroke-opacity:1" />
      <path
         sodipodi:nodetypes="cc"
         inkscape:connector-curvature="0"
         id="path822"
         d="m 316.40531,139.62725 c -6.31321,-1.72285 -11.71056,-4.48984 -20.28175,-2.54347"
         style="fill:none;stroke:#ffffff;stroke-width:3.5;stroke-linecap:butt;stroke-linejoin:miter;stroke-miterlimit:4;stroke-dasharray:none;stroke-opacity:1" />
      <path
         sodipodi:nodetypes="cc"
         inkscape:connector-curvature="0"
         id="path824"
         d="m 333.64426,172.25639 c -3.74886,2.4897 -6.04195,2.60317 -9.59697,7.32198"
         style="fill:none;stroke:#ffffff;stroke-width:3.5;stroke-linecap:butt;stroke-linejoin:miter;stroke-miterlimit:4;stroke-dasharray:none;stroke-opacity:1" />
    </g>
    <text
       xml:space="preserve"
       style="font-style:normal;font-weight:normal;font-size:40px;line-height:1.25;font-family:sans-serif;letter-spacing:0px;word-spacing:0px;fill:#ffffff;fill-opacity:1;stroke:none"
       x="-429.54785"
       y="-307.46136"
       id="text1147"><tspan
         sodipodi:role="line"
         id="tspan1145"
         x="-429.54785"
         y="-307.46136"
         style="font-size:333.33334351px">asymptor</tspan></text>
  </g>
</svg>
